<svg width="304" height="93" viewBox="0 0 304 93" fill="none" xmlns="http://www.w3.org/2000/svg">
<path d="M271.792 36.8271C271.792 38.6458 271.338 40.919 270.431 43.1923C269.524 45.4656 268.163 47.2842 266.802 49.5575C265.441 51.8308 263.626 53.6494 261.812 55.0134C259.997 56.832 258.636 58.196 256.822 60.0146L253.646 62.2879V62.7426L257.275 61.8332H266.802L265.441 67.7438H244.573L245.481 64.1065C246.388 63.1972 247.749 61.8332 249.11 60.9239C250.471 59.56 251.832 58.196 253.193 56.832C254.554 55.4681 256.368 53.6494 257.729 52.2855C259.09 50.9215 260.451 49.1029 261.358 47.7389C262.265 46.3749 263.173 44.5563 264.08 43.1923C264.987 41.8283 264.987 40.4644 264.987 39.1004C264.987 37.7364 264.534 36.8271 264.08 36.3725C263.626 35.4632 262.265 35.0085 260.451 35.0085C259.544 35.0085 258.183 35.4632 256.822 35.9178C255.461 36.3725 254.554 37.2818 253.193 38.1911L251.378 33.1899C253.193 31.8259 255.007 30.9166 256.822 30.4619C258.636 30.0073 260.451 29.5526 263.173 29.5526C265.894 29.5526 267.709 30.4619 269.524 31.8259C271.338 32.2806 271.792 34.5538 271.792 36.8271Z" fill="#A6ABBD"/>
<path d="M301.278 56.8317H295.381L293.113 67.7435H286.762L289.03 56.8317H273.606L274.514 52.7398L295.835 29.0977H301.278L296.742 51.3758H302.639L301.278 56.8317ZM292.205 42.7374L293.566 38.1908L290.844 42.2827L284.04 49.5572L280.864 51.8305L284.04 51.3758H289.937L292.205 42.7374Z" fill="#A6ABBD"/>
<path d="M304 17.277L302.185 17.7316L296.742 19.0956L281.318 22.2782L284.04 13.1851C262.719 7.27451 240.491 19.5502 234.14 40.9191C227.335 62.288 238.676 85.0208 259.544 92.75C237.315 85.0208 224.613 60.924 231.872 37.7365C239.13 15.0037 263.173 1.81863 285.855 8.63848L288.123 0L304 17.277Z" fill="#00C368"/>
<path d="M9.86328 54.4756L7.66602 67H0.512695L6.68945 31.4531L19.1406 31.4775C22.9818 31.4775 26.001 32.5436 28.1982 34.6758C30.3955 36.8079 31.3558 39.5911 31.0791 43.0254C30.8187 46.5085 29.362 49.2917 26.709 51.375C24.0723 53.4583 20.7031 54.5 16.6016 54.5L9.86328 54.4756ZM10.8643 48.543L16.8213 48.5918C18.7419 48.5918 20.3369 48.0954 21.6064 47.1025C22.876 46.1097 23.6328 44.7669 23.877 43.0742C24.1211 41.3815 23.8444 40.0306 23.0469 39.0215C22.2656 38.0124 21.1019 37.4753 19.5557 37.4102L12.8174 37.3857L10.8643 48.543ZM47.29 53.9873H41.4795L39.209 67H32.0557L38.2324 31.4531L50 31.4775C53.9388 31.4775 56.9661 32.4053 59.082 34.2607C61.2142 36.1162 62.1582 38.696 61.9141 42C61.5723 46.8828 58.9681 50.2764 54.1016 52.1807L59.1064 66.6094V67H51.4893L47.29 53.9873ZM42.5049 48.0547L47.8271 48.1035C49.7152 48.071 51.2695 47.5664 52.4902 46.5898C53.7272 45.597 54.4678 44.2542 54.7119 42.5615C54.9398 40.9827 54.6875 39.7458 53.9551 38.8506C53.2227 37.9554 52.0589 37.4753 50.4639 37.4102L44.3604 37.3857L42.5049 48.0547ZM77.5391 67.4883C75.179 67.4395 73.0957 66.8861 71.2891 65.8281C69.4987 64.7539 68.0745 63.2158 67.0166 61.2139C65.9749 59.1956 65.3727 56.8844 65.21 54.2803C65.0309 51.611 65.3158 48.7627 66.0645 45.7354C66.8132 42.708 68.0176 40.0469 69.6777 37.752C71.3379 35.457 73.2829 33.7399 75.5127 32.6006C77.7588 31.4613 80.1839 30.916 82.7881 30.9648C85.1807 31.0137 87.2721 31.5833 89.0625 32.6738C90.8529 33.748 92.2607 35.3024 93.2861 37.3369C94.3115 39.3551 94.8975 41.6501 95.0439 44.2217C95.2067 47.0863 94.8975 50.0322 94.1162 53.0596C93.335 56.0869 92.1224 58.7074 90.4785 60.9209C88.8346 63.1344 86.9059 64.7946 84.6924 65.9014C82.4951 67.0081 80.1107 67.5371 77.5391 67.4883ZM87.6709 48.25L87.8662 45.9307C88.029 43.0335 87.6383 40.8363 86.6943 39.3389C85.7666 37.8415 84.3506 37.0602 82.4463 36.9951C79.4678 36.8975 77.0996 38.2158 75.3418 40.9502C73.6003 43.6846 72.6156 47.5094 72.3877 52.4248C72.2249 55.3057 72.6074 57.5273 73.5352 59.0898C74.4629 60.6361 75.9033 61.4417 77.8564 61.5068C80.4118 61.6208 82.5277 60.6279 84.2041 58.5283C85.8805 56.4124 86.9792 53.4258 87.5 49.5684L87.6709 48.25ZM96.9971 67L103.174 31.4531L113.379 31.4775C115.771 31.5264 117.92 32.0716 119.824 33.1133C121.745 34.1387 123.299 35.6198 124.487 37.5566C125.675 39.4935 126.392 41.6745 126.636 44.0996C126.766 45.5156 126.75 46.9642 126.587 48.4453L126.416 49.7393C125.7 54.9476 123.649 59.1305 120.264 62.2881C116.895 65.4294 112.801 67 107.983 67H96.9971ZM109.302 37.3857L105.176 61.1162L108.154 61.1406C111.442 61.1406 114.079 59.9362 116.064 57.5273C118.066 55.1185 119.214 51.4808 119.507 46.6143L119.556 45.833C119.604 43.1475 119.092 41.0885 118.018 39.6562C116.943 38.224 115.34 37.4753 113.208 37.4102L109.302 37.3857ZM161.206 31.4531L157.202 54.8906C156.649 58.8132 155.021 61.9137 152.319 64.1924C149.618 66.471 146.265 67.5778 142.261 67.5127C139.754 67.4639 137.573 66.9186 135.718 65.877C133.879 64.819 132.52 63.3379 131.641 61.4336C130.762 59.513 130.461 57.3402 130.737 54.915L134.717 31.4531H141.87L137.891 54.9395C137.777 55.8509 137.769 56.7054 137.866 57.5029C138.192 60.1396 139.762 61.5068 142.578 61.6045C144.596 61.6696 146.248 61.1162 147.534 59.9443C148.82 58.7725 149.65 57.096 150.024 54.915L154.028 31.4531H161.206ZM189.941 55.1348C189.665 57.5924 188.826 59.7734 187.427 61.6777C186.027 63.5658 184.204 65.0225 181.958 66.0479C179.712 67.057 177.287 67.5371 174.683 67.4883C172.339 67.4395 170.296 66.9023 168.555 65.877C166.813 64.8353 165.438 63.3379 164.429 61.3848C163.436 59.4154 162.874 57.153 162.744 54.5977C162.63 52.5957 162.834 50.1055 163.354 47.127C163.892 44.1484 164.836 41.5036 166.187 39.1924C167.554 36.8812 169.173 35.0501 171.045 33.6992C173.682 31.8112 176.693 30.8997 180.078 30.9648C183.757 31.0299 186.67 32.1693 188.818 34.3828C190.983 36.5801 192.171 39.64 192.383 43.5625L185.254 43.5381C185.254 41.292 184.806 39.6481 183.911 38.6064C183.016 37.5648 181.624 37.0114 179.736 36.9463C177.295 36.8649 175.285 37.7357 173.706 39.5586C172.144 41.3815 171.094 44.0426 170.557 47.542C170.036 50.9437 169.808 53.4909 169.873 55.1836C169.954 57.332 170.435 58.9189 171.313 59.9443C172.192 60.9535 173.421 61.4824 175 61.5312C177.181 61.6126 178.923 61.0999 180.225 59.9932C181.543 58.8701 182.414 57.2669 182.837 55.1836L189.941 55.1348ZM223.34 37.3857H212.793L207.666 67H200.513L205.64 37.3857H195.215L196.265 31.4531H224.39L223.34 37.3857Z" fill="#A6ABBD"/>
</svg>
