<svg width="109" height="99" viewBox="0 0 109 99" fill="none" xmlns="http://www.w3.org/2000/svg">
<g filter="url(#filter0_d_1_284)">
<path d="M15.1607 61.5422C9.30285 55.6844 9.30284 46.1869 15.1607 40.329L40.7138 14.7759C46.5717 8.91804 56.0692 8.91804 61.927 14.7759L66.3751 19.2239C72.7391 25.588 72.1152 36.1227 65.2298 42.0046C61.3795 45.2936 57.381 48.849 54.1861 52.0091C50.446 55.7086 46.2117 60.4447 42.3971 64.8965C36.5133 71.7631 25.9905 72.372 19.6345 66.016L15.1607 61.5422Z" stroke="#2E3A59" stroke-width="2"/>
<path d="M13.1361 59.2873C7.76622 53.9173 7.26444 45.4045 12.1268 39.6211C16.509 34.4089 21.7879 28.3753 26.3021 23.9101C30.2798 19.9757 35.5538 15.3896 40.2347 11.4712C46.0198 6.62843 54.5204 7.13888 59.8823 12.5008L60.2826 12.9011C66.6467 19.2651 66.0228 29.7998 59.1373 35.6817C55.287 38.9708 51.2885 42.5261 48.0937 45.6863C44.3535 49.3857 40.1192 54.1218 36.3046 58.5736C30.4209 65.4402 19.898 66.0491 13.542 59.6931L13.1361 59.2873Z" stroke="#2E3A59" stroke-width="2"/>
<rect x="34.1522" y="26.7675" width="15.6653" height="15.6653" rx="7.83265" transform="rotate(-45 34.1522 26.7675)" stroke="#2E3A59" stroke-width="2"/>
<rect x="69.5" y="63.9998" width="26" height="22" rx="1" stroke="#2E3A59" stroke-width="2"/>
<path d="M71.5 40.9994C78.5 42.9994 82.5 45.9998 82.5002 56.999" stroke="#2E3A59" stroke-width="2"/>
</g>
<defs>
<filter id="filter0_d_1_284" x="3.77332" y="3.1373" width="104.727" height="95.8625" filterUnits="userSpaceOnUse" color-interpolation-filters="sRGB">
<feFlood flood-opacity="0" result="BackgroundImageFix"/>
<feColorMatrix in="SourceAlpha" type="matrix" values="0 0 0 0 0 0 0 0 0 0 0 0 0 0 0 0 0 0 127 0" result="hardAlpha"/>
<feOffset dx="4" dy="4"/>
<feGaussianBlur stdDeviation="4"/>
<feColorMatrix type="matrix" values="0 0 0 0 0.65098 0 0 0 0 0.670588 0 0 0 0 0.741176 0 0 0 1 0"/>
<feBlend mode="normal" in2="BackgroundImageFix" result="effect1_dropShadow_1_284"/>
<feBlend mode="normal" in="SourceGraphic" in2="effect1_dropShadow_1_284" result="shape"/>
</filter>
</defs>
</svg>
