<svg width="80" height="88" viewBox="0 0 80 88" fill="none" xmlns="http://www.w3.org/2000/svg">
<g filter="url(#filter0_d_1_248)">
<path d="M64 43.5V29C64 15.7452 53.2548 5 40 5H32C18.7452 5 8 15.7452 8 29V43.5" stroke="#2E3A59" stroke-width="2"/>
<path d="M13 35C13 22.2975 23.2975 12 36 12C48.7025 12 59 22.2975 59 35V43C59 55.7025 48.7025 66 36 66C23.2975 66 13 55.7025 13 43V35Z" stroke="#2E3A59" stroke-width="2"/>
<path d="M33.5 74.5L40 74.5C53.2548 74.5 64 63.7548 64 50.5L64 40" stroke="#2E3A59" stroke-width="2"/>
<rect x="5" y="36" width="6" height="14" rx="3" stroke="#2E3A59" stroke-width="2"/>
<rect x="61" y="36" width="6" height="14" rx="3" stroke="#2E3A59" stroke-width="2"/>
</g>
<defs>
<filter id="filter0_d_1_248" x="0" y="0" width="80" height="87.5" filterUnits="userSpaceOnUse" color-interpolation-filters="sRGB">
<feFlood flood-opacity="0" result="BackgroundImageFix"/>
<feColorMatrix in="SourceAlpha" type="matrix" values="0 0 0 0 0 0 0 0 0 0 0 0 0 0 0 0 0 0 127 0" result="hardAlpha"/>
<feOffset dx="4" dy="4"/>
<feGaussianBlur stdDeviation="4"/>
<feColorMatrix type="matrix" values="0 0 0 0 0.65098 0 0 0 0 0.670588 0 0 0 0 0.741176 0 0 0 1 0"/>
<feBlend mode="normal" in2="BackgroundImageFix" result="effect1_dropShadow_1_248"/>
<feBlend mode="normal" in="SourceGraphic" in2="effect1_dropShadow_1_248" result="shape"/>
</filter>
</defs>
</svg>
