<svg width="73" height="88" viewBox="0 0 73 88" fill="none" xmlns="http://www.w3.org/2000/svg">
<g filter="url(#filter0_d_1_239)">
<rect x="5.5" y="5" width="54" height="70" rx="3" stroke="#2E3A59" stroke-width="2"/>
<path d="M13.5 5H51.5V10C51.5 11.6569 50.1569 13 48.5 13H16.5C14.8431 13 13.5 11.6569 13.5 10V5Z" stroke="#2E3A59" stroke-width="2"/>
<g filter="url(#filter1_d_1_239)">
<path d="M13.5 61C13.5 59.3431 14.8431 58 16.5 58H48.5C50.1569 58 51.5 59.3431 51.5 61V63C51.5 64.6569 50.1569 66 48.5 66H16.5C14.8431 66 13.5 64.6569 13.5 63V61Z" stroke="#00C368" stroke-width="2"/>
</g>
</g>
<defs>
<filter id="filter0_d_1_239" x="0.5" y="0" width="72" height="88" filterUnits="userSpaceOnUse" color-interpolation-filters="sRGB">
<feFlood flood-opacity="0" result="BackgroundImageFix"/>
<feColorMatrix in="SourceAlpha" type="matrix" values="0 0 0 0 0 0 0 0 0 0 0 0 0 0 0 0 0 0 127 0" result="hardAlpha"/>
<feOffset dx="4" dy="4"/>
<feGaussianBlur stdDeviation="4"/>
<feColorMatrix type="matrix" values="0 0 0 0 0.65098 0 0 0 0 0.670588 0 0 0 0 0.741176 0 0 0 1 0"/>
<feBlend mode="normal" in2="BackgroundImageFix" result="effect1_dropShadow_1_239"/>
<feBlend mode="normal" in="SourceGraphic" in2="effect1_dropShadow_1_239" result="shape"/>
</filter>
<filter id="filter1_d_1_239" x="10.5" y="55" width="48" height="18" filterUnits="userSpaceOnUse" color-interpolation-filters="sRGB">
<feFlood flood-opacity="0" result="BackgroundImageFix"/>
<feColorMatrix in="SourceAlpha" type="matrix" values="0 0 0 0 0 0 0 0 0 0 0 0 0 0 0 0 0 0 127 0" result="hardAlpha"/>
<feOffset dx="2" dy="2"/>
<feGaussianBlur stdDeviation="2"/>
<feColorMatrix type="matrix" values="0 0 0 0 0 0 0 0 0 0.764706 0 0 0 0 0.407843 0 0 0 0.4 0"/>
<feBlend mode="normal" in2="BackgroundImageFix" result="effect1_dropShadow_1_239"/>
<feBlend mode="normal" in="SourceGraphic" in2="effect1_dropShadow_1_239" result="shape"/>
</filter>
</defs>
</svg>
