<svg width="24" height="28" viewBox="0 0 24 28" fill="none" xmlns="http://www.w3.org/2000/svg">
<rect x="9" y="9" width="1" height="10" fill="#2E3A59"/>
<rect x="9" y="9" width="1" height="10" fill="#2E3A59"/>
<rect x="9" y="9" width="1" height="10" fill="#2E3A59"/>
<rect x="14.5671" y="3.35779" width="1" height="13.3677" transform="rotate(30 14.5671 3.35779)" fill="#2E3A59"/>
<rect x="14.5671" y="3.35779" width="1" height="13.3677" transform="rotate(30 14.5671 3.35779)" fill="#2E3A59"/>
<rect x="14.5671" y="3.35779" width="1" height="13.3677" transform="rotate(30 14.5671 3.35779)" fill="#2E3A59"/>
<rect x="19.1424" y="7.56702" width="1" height="12.077" transform="rotate(60 19.1424 7.56702)" fill="#2E3A59"/>
<rect x="19.1424" y="7.56702" width="1" height="12.077" transform="rotate(60 19.1424 7.56702)" fill="#2E3A59"/>
<rect x="19.1424" y="7.56702" width="1" height="12.077" transform="rotate(60 19.1424 7.56702)" fill="#2E3A59"/>
<rect x="19.6423" y="19.5671" width="1" height="13.1329" transform="rotate(120 19.6423 19.5671)" fill="#2E3A59"/>
<rect x="19.6423" y="19.5671" width="1" height="13.1329" transform="rotate(120 19.6423 19.5671)" fill="#2E3A59"/>
<rect x="19.6423" y="19.5671" width="1" height="13.1329" transform="rotate(120 19.6423 19.5671)" fill="#2E3A59"/>
<rect x="15.433" y="24.1423" width="1" height="15.5875" transform="rotate(150 15.433 24.1423)" fill="#2E3A59"/>
<rect x="15.433" y="24.1423" width="1" height="15.5875" transform="rotate(150 15.433 24.1423)" fill="#2E3A59"/>
<rect x="15.433" y="24.1423" width="1" height="15.5875" transform="rotate(150 15.433 24.1423)" fill="#2E3A59"/>
<rect y="7" width="14" height="14" rx="7" fill="#E7EBF0"/>
<rect x="6" y="2" width="1" height="24" fill="#2E3A59"/>
<path d="M21 14H14" stroke="#2E3A59"/>
<path d="M6.5 8.52242C9.30325 8.77504 11.5 11.131 11.5 14C11.5 16.869 9.30325 19.225 6.5 19.4776V8.52242Z" fill="white" stroke="#2E3A59"/>
<rect x="14.5" y="0.5" width="3" height="3" rx="1.5" fill="#FFD058" stroke="#2E3A59"/>
<rect x="19.5" y="5.5" width="3" height="3" rx="1.5" fill="#FFD058" stroke="#2E3A59"/>
<rect x="20.5" y="12.5" width="3" height="3" rx="1.5" fill="#FFD058" stroke="#2E3A59"/>
<rect x="19.5" y="19.5" width="3" height="3" rx="1.5" fill="#FFD058" stroke="#2E3A59"/>
<rect x="14.5" y="24.5" width="3" height="3" rx="1.5" fill="#FFD058" stroke="#2E3A59"/>
</svg>
